<svg version="1.1" id="Layer_1" xmlns="http://www.w3.org/2000/svg" x="0" y="0" viewBox="0 0 120.64 122.88" style="enable-background:new 0 0 120.64 122.88" xml:space="preserve"><path d="M54.03 108.91a8.288 8.288 0 0 0-2.28 5.85c.03 2.11.84 4.2 2.44 5.79l.12.12c1.58 1.5 3.6 2.23 5.61 2.2 2.01-.03 4.01-.82 5.55-2.37 17.66-17.66 35.13-35.61 52.68-53.4.07-.05.13-.1.19-.16a8.335 8.335 0 0 0 2.28-5.87 8.323 8.323 0 0 0-2.45-5.8l-.27-.26C100.43 37.47 82.98 19.87 65.46 2.36A7.956 7.956 0 0 0 59.92 0c-2.01-.03-4.03.7-5.61 2.21l-.15.15a8.318 8.318 0 0 0-2.41 5.76c-.03 2.1.73 4.22 2.28 5.85l47.22 47.27-47.22 47.67zm-51.77-2A8.265 8.265 0 0 0 0 112.74c.03 2.11.84 4.2 2.44 5.79l.12.12c1.57 1.5 3.6 2.23 5.61 2.21 2.01-.03 4.02-.82 5.55-2.37C31.01 101.2 48.87 84.2 66.39 67.12c.07-.05.14-.11.21-.17a8.335 8.335 0 0 0 2.28-5.87 8.323 8.323 0 0 0-2.45-5.8C48.94 38.33 31.36 21.44 13.83 4.51l-.12-.13a7.945 7.945 0 0 0-5.54-2.35c-2.01-.03-4.03.7-5.61 2.2l-.15.15A8.336 8.336 0 0 0 0 10.14c-.03 2.1.73 4.22 2.28 5.85l47.18 45.24-47.2 45.68z"/></svg>