<svg width="40" height="40" viewBox="0 0 1024 1024" class="icon" xmlns="http://www.w3.org/2000/svg"><path d="M509.076 990.1c-266.47 0-483.246-216.785-483.246-483.25S242.601 23.597 509.076 23.597 992.323 240.384 992.323 506.85 775.547 990.1 509.076 990.1zm0-946.933C253.4 43.167 45.39 251.172 45.39 506.844s208.01 463.678 463.687 463.678 463.688-208.006 463.688-463.678S764.75 43.167 509.076 43.167z" fill="#6C0000"/><path d="M172.984 506.85a333.809 333.809 0 1 0 667.618 0 333.809 333.809 0 1 0-667.618 0Z" fill="#FFED40"/><path d="M506.798 850.447c-189.46 0-343.598-154.137-343.598-343.598s154.138-343.598 343.598-343.598S850.381 317.39 850.381 506.85 696.259 850.447 506.798 850.447zm0-667.622c-178.678 0-324.04 145.357-324.04 324.024s145.362 324.025 324.04 324.025c178.662 0 324.024-145.357 324.024-324.025S685.46 182.825 506.798 182.825z" fill="#6C0000"/><path d="M589.353 421.55a85.714 85.714 0 1 0 171.428 0 85.714 85.714 0 1 0-171.428 0Z" fill="#FFC700"/><path d="M675.108 515.44a93.896 93.896 0 0 1-25.733-3.604 93.256 93.256 0 0 1-56.31-44.616 93.143 93.143 0 0 1-8.264-71.357c11.418-40.156 48.523-68.198 90.23-68.198a94.289 94.289 0 0 1 25.733 3.604 93.256 93.256 0 0 1 56.31 44.616 93.143 93.143 0 0 1 8.264 71.357c-11.418 40.156-48.523 68.199-90.23 68.199zm-.077-171.473c-34.463 0-65.116 23.173-74.563 56.35a77.158 77.158 0 0 0 6.83 58.973 77.056 77.056 0 0 0 46.531 36.858 77.728 77.728 0 0 0 21.274 2.985c34.462 0 65.116-23.173 74.562-56.35a77.158 77.158 0 0 0-6.83-58.972 77.056 77.056 0 0 0-46.53-36.86 77.645 77.645 0 0 0-21.274-2.984z" fill="#6C0000"/><path d="M303.821 424.786a48.614 48.614 0 1 0 97.229 0 48.614 48.614 0 1 0-97.23 0Z" fill="#FFC700"/><path d="M352.45 481.567c-5.237 0-10.48-.732-15.56-2.181a56.356 56.356 0 0 1-34.047-26.983 56.361 56.361 0 0 1-5.002-43.167C304.737 384.957 327.173 368 352.415 368c5.237 0 10.48.732 15.56 2.181 14.586 4.147 26.675 13.737 34.047 26.983a56.361 56.361 0 0 1 5.003 43.166c-6.892 24.28-29.333 41.237-54.574 41.237zm-.03-97.26a40.622 40.622 0 0 0-38.907 29.4 40.177 40.177 0 0 0 3.569 30.765 40.192 40.192 0 0 0 24.268 19.231c21.115 6.006 44.063-6.938 50.002-27.837a40.177 40.177 0 0 0-3.568-30.766 40.192 40.192 0 0 0-24.27-19.231 40.294 40.294 0 0 0-11.094-1.562z" fill="#6C0000"/><path d="M456.499 521.19a29.128 29.128 0 1 0 58.256 0 29.128 29.128 0 1 0-58.256 0Z" fill="#FFC700"/><path d="M485.632 558.484a37.325 37.325 0 0 1-35.881-47.498c5.51-19.277 26.752-31.104 46.07-25.656 19.763 5.622 31.278 26.286 25.671 46.065-4.551 15.953-19.297 27.09-35.86 27.09zm-.03-58.275a21.09 21.09 0 0 0-20.163 15.247 21.023 21.023 0 0 0 14.443 25.912c10.957 3.124 22.835-3.604 25.928-14.438a21.023 21.023 0 0 0-20.209-26.721z" fill="#6C0000"/><path d="M696.31 604.692a18.232 18.232 0 1 0 36.464 0 18.232 18.232 0 1 0-36.464 0Z" fill="#FFC700"/><path d="M714.557 631.081a26.42 26.42 0 0 1-25.385-33.613c3.856-13.63 18.888-22.057 32.584-18.155a26.24 26.24 0 0 1 15.847 12.539 26.143 26.143 0 0 1 2.309 20.05 26.47 26.47 0 0 1-25.355 19.179zm-.035-36.47c-4.475 0-8.459 3.01-9.682 7.317a10.097 10.097 0 0 0 6.942 12.452c5.274 1.51 10.973-1.736 12.452-6.938a10.045 10.045 0 0 0-.89-7.66 10.015 10.015 0 0 0-8.822-5.17z" fill="#6C0000"/><path d="M448.614 707.123a45.194 45.194 0 1 0 90.389 0 45.194 45.194 0 1 0-90.389 0Z" fill="#FFC700"/><path d="M493.834 760.479c-4.92 0-9.84-.686-14.617-2.048a52.992 52.992 0 0 1-32.01-25.355 52.961 52.961 0 0 1-4.7-40.56c6.481-22.82 27.58-38.753 51.276-38.753 4.92 0 9.84.686 14.618 2.048a52.992 52.992 0 0 1 32.01 25.354 52.961 52.961 0 0 1 4.7 40.56c-6.477 22.82-27.566 38.754-51.277 38.754zm-.046-90.41c-16.45 0-31.083 11.06-35.61 26.906a36.808 36.808 0 0 0 3.267 28.165 36.787 36.787 0 0 0 22.231 17.603 37.145 37.145 0 0 0 10.158 1.423c16.45 0 31.084-11.059 35.61-26.905a36.808 36.808 0 0 0-3.267-28.165 36.787 36.787 0 0 0-22.23-17.603 37.34 37.34 0 0 0-10.159-1.423z" fill="#6C0000"/><path d="M606.95 204.124c-114.083-20.772-235.468 21.479-310.825 119.86-107.197 139.95-80.645 340.3 59.305 447.498a318.669 318.669 0 0 0 90.645 48.553 317.655 317.655 0 0 1-136.668-60.56c-139.95-107.197-166.498-307.543-59.305-447.493 85.611-111.77 230.625-151.117 356.848-107.858z" fill="#FFBD00"/></svg>