<svg aria-hidden="true" style="width:0;height:0;position:absolute;overflow:hidden" xmlns="http://www.w3.org/2000/svg"><defs><symbol id="icon-heard" viewBox="0 0 34 32"><path fill="#ff6b08" style="fill:var(--color1,#ff6b08)" d="m17.231 31.705-2.412-2.412C5.859 21.367.001 16.025.001 9.478.001 4.136 4.136.001 9.478.001c2.929 0 5.858 1.378 7.754 3.618 1.895-2.24 4.825-3.618 7.754-3.618 5.342 0 9.477 4.135 9.477 9.477 0 6.548-5.858 11.889-14.818 19.815l-2.412 2.412z"/></symbol><symbol id="icon-play" viewBox="0 0 32 32"><path d="m6 4 20 12L6 28z"/></symbol><symbol id="icon-search-icon" viewBox="0 0 32 32"><path fill="none" stroke="#fff" style="stroke:var(--color2,#fff)" stroke-linejoin="round" stroke-linecap="round" stroke-width="2.667" d="M14.667 25.333c5.891 0 10.667-4.776 10.667-10.667S20.558 3.999 14.667 3.999 4 8.775 4 14.666s4.776 10.667 10.667 10.667zM28 28.001l-5.8-5.8"/></symbol><symbol id="icon-film" viewBox="0 0 32 32"><path fill="none" stroke="#fff" style="stroke:var(--color2,#fff)" stroke-linejoin="round" stroke-linecap="round" stroke-width="2.667" d="M26.427 2.667H5.574a2.907 2.907 0 0 0-2.907 2.907v20.853a2.907 2.907 0 0 0 2.907 2.907h20.853a2.907 2.907 0 0 0 2.907-2.907V5.574a2.907 2.907 0 0 0-2.907-2.907zM9.333 2.667v26.667M22.667 2.667v26.667M2.667 16h26.667M2.667 9.333h6.667M2.667 22.667h6.667M22.667 22.667h6.667M22.667 9.333h6.667"/></symbol><symbol id="icon-close" viewBox="0 0 32 32"><path d="M32 3.223 28.777 0 16 12.777 3.223 0 0 3.223 12.777 16 0 28.777 3.223 32 16 19.223 28.777 32 32 28.777 19.223 16 32 3.223z"/></symbol><symbol id="icon-heart" viewBox="0 0 32 32"><path fill="#FF6B08" d="M23.6 2c-3.363 0-6.258 2.736-7.599 5.594C14.659 4.736 11.764 2 8.4 2 3.763 2 0 5.764 0 10.401c0 9.433 9.516 11.906 16.001 21.232C22.131 22.365 32 19.533 32 10.401 32 5.764 28.237 2 23.6 2z"/></symbol><symbol id="moon" viewBox="0 0 32 32"><path d="M17.701 32a15.97 15.97 0 0 0 12.429-5.925c.442-.544-.04-1.339-.723-1.209-7.763 1.478-14.891-4.474-14.891-12.31 0-4.514 2.416-8.665 6.344-10.9.605-.345.453-1.262-.235-1.389-.879-.17-1.89-.267-2.923-.268-8.832 0-16 7.157-16 16 0 8.832 7.157 16 16 16z"/></symbol><symbol id="sun" viewBox="0 0 32 32"><path d="M16 10c-3.306 0-6 2.694-6 6s2.694 6 6 6 6-2.694 6-6-2.694-6-6-6zm15.4 5.031-5.919-2.956L27.575 5.8c.281-.85-.525-1.656-1.369-1.369l-6.275 2.094L16.969.6c-.4-.8-1.537-.8-1.938 0l-2.956 5.919-6.281-2.094c-.85-.281-1.656.525-1.369 1.369l2.094 6.275L.6 15.032c-.8.4-.8 1.538 0 1.938l5.919 2.956-2.094 6.281c-.281.85.525 1.656 1.369 1.369l6.275-2.094 2.956 5.919c.4.8 1.538.8 1.938 0l2.956-5.919 6.275 2.094c.85.281 1.656-.525 1.369-1.369l-2.094-6.275 5.919-2.956c.813-.406.813-1.544.012-1.944zm-9.744 6.625c-3.119 3.119-8.194 3.119-11.313 0s-3.119-8.194 0-11.313c3.119-3.119 8.194-3.119 11.313 0s3.119 8.194 0 11.313z"/></symbol><symbol id="icon-arrow-up" viewBox="0 0 32 32"><path d="M26.132 24.713c1.34 1.34 3.522 1.34 4.862 0s1.34-3.522 0-4.862L18.431 7.288a3.443 3.443 0 0 0-4.862 0L1.006 19.851c-1.34 1.34-1.34 3.522 0 4.862s3.522 1.34 4.862 0L16 14.581l10.132 10.132z"/></symbol><symbol id="icon-chevron-up" viewBox="0 0 24 24"><path d="m18.707 14.293-6-6a.999.999 0 0 0-1.414 0l-6 6a.999.999 0 1 0 1.414 1.414L12 10.414l5.293 5.293a.999.999 0 1 0 1.414-1.414z"/></symbol><symbol id="icon-log-in" viewBox="0 0 24 24"><path d="M15 4h4c.276 0 .525.111.707.293S20 4.724 20 5v14c0 .276-.111.525-.293.707S19.276 20 19 20h-4a1 1 0 0 0 0 2h4a2.997 2.997 0 0 0 3-3V5a2.997 2.997 0 0 0-3-3h-4a1 1 0 0 0 0 2zm-2.414 7H3a1 1 0 0 0 0 2h9.586l-3.293 3.293a.999.999 0 1 0 1.414 1.414l5-5a.998.998 0 0 0 0-1.414l-5-5a.999.999 0 1 0-1.414 1.414z"/></symbol><symbol id="icon-log-out" viewBox="0 0 24 24"><path d="M9 20H5c-.276 0-.525-.111-.707-.293S4 19.276 4 19V5c0-.276.111-.525.293-.707S4.724 4 5 4h4a1 1 0 0 0 0-2H5a2.997 2.997 0 0 0-3 3v14a2.997 2.997 0 0 0 3 3h4a1 1 0 0 0 0-2zm9.586-9H9a1 1 0 0 0 0 2h9.586l-3.293 3.293a.999.999 0 1 0 1.414 1.414l5-5a1 1 0 0 0 0-1.414l-5-5a.999.999 0 1 0-1.414 1.414z"/></symbol><symbol id="icon-x-square" viewBox="0 0 24 24"><path d="M5 2a2.997 2.997 0 0 0-3 3v14a2.997 2.997 0 0 0 3 3h14a2.997 2.997 0 0 0 3-3V5a2.997 2.997 0 0 0-3-3zm0 2h14c.276 0 .525.111.707.293S20 4.724 20 5v14c0 .276-.111.525-.293.707S19.276 20 19 20H5c-.276 0-.525-.111-.707-.293S4 19.276 4 19V5c0-.276.111-.525.293-.707S4.724 4 5 4zm9.293 4.293L12 10.586 9.707 8.293a.999.999 0 1 0-1.414 1.414L10.586 12l-2.293 2.293a.999.999 0 1 0 1.414 1.414L12 13.414l2.293 2.293a.999.999 0 1 0 1.414-1.414L13.414 12l2.293-2.293a.999.999 0 1 0-1.414-1.414z"/></symbol><symbol id="icon-close" viewBox="0 0 20 20"><path d="M10 8.586 2.929 1.515 1.515 2.929 8.586 10l-7.071 7.071 1.414 1.414L10 11.414l7.071 7.071 1.414-1.414L11.414 10l7.071-7.071-1.414-1.414L10 8.586z"/></symbol><symbol id="icon-user" viewBox="0 0 24 24"><path d="M21 21v-2c0-1.38-.561-2.632-1.464-3.536S17.38 14 16 14H8c-1.38 0-2.632.561-3.536 1.464S3 17.62 3 19v2a1 1 0 0 0 2 0v-2c0-.829.335-1.577.879-2.121S7.171 16 8 16h8c.829 0 1.577.335 2.121.879S19 18.171 19 19v2a1 1 0 0 0 2 0zM17 7c0-1.38-.561-2.632-1.464-3.536S13.38 2 12 2s-2.632.561-3.536 1.464S7 5.62 7 7s.561 2.632 1.464 3.536S10.62 12 12 12s2.632-.561 3.536-1.464S17 8.38 17 7zm-2 0c0 .829-.335 1.577-.879 2.121S12.829 10 12 10s-1.577-.335-2.121-.879S9 7.829 9 7s.335-1.577.879-2.121S11.171 4 12 4s1.577.335 2.121.879S15 6.171 15 7z"/></symbol><symbol id="icon-gmail" viewBox="0 0 32 32"><path fill="#d14836" style="fill:var(--color1,#d14836)" d="M32 6v20c0 1.133-.867 2-2 2h-2V9.849l-12 8.617L4 9.849V28H2c-1.135 0-2-.867-2-2V6c0-.567.216-1.067.575-1.424A1.98 1.98 0 0 1 2 4h.667L16 13.667 29.333 4H30c.567 0 1.067.216 1.425.576.36.357.575.857.575 1.424z"/></symbol><symbol id="icon-key" viewBox="0 0 20 20"><path d="M12.26 11.74 10 14H8v2H6v2l-2 2H0v-4l8.26-8.26a5.866 5.866 0 0 1-.258-1.742 6 6 0 1 1 4.216 5.73l.043.011zm4.86-4.62A3 3 0 0 0 15 2a2.992 2.992 0 0 0-2.12.88l4.24 4.24z"/></symbol></defs></svg>