<svg height="40" width="40" version="1.1" id="Layer_1" xmlns="http://www.w3.org/2000/svg" viewBox="0 0 512 512" xml:space="preserve"><path style="fill:#ddb200" d="m362.99 450.016-23.462 53.363-51.009-28.217a34.28 34.28 0 0 0-36.87 2.356L204.647 512l-30.066-49.942a34.281 34.281 0 0 0-33.11-16.394l-57.945 6.362-1.067-58.283a34.278 34.278 0 0 0-20.477-30.752L8.62 339.528l28.217-51.009a34.28 34.28 0 0 0-2.356-36.87L0 204.647l49.942-30.066a34.281 34.281 0 0 0 16.394-33.11l-6.362-57.945 58.283-1.067a34.278 34.278 0 0 0 30.752-20.477L172.472 8.62l51.009 28.217a34.28 34.28 0 0 0 36.87-2.356L307.353 0l30.066 49.942a34.281 34.281 0 0 0 33.11 16.394l57.945-6.362 1.067 58.283a34.278 34.278 0 0 0 20.477 30.752l53.363 23.462-28.217 51.009a34.28 34.28 0 0 0 2.356 36.87L512 307.353l-49.942 30.066a34.281 34.281 0 0 0-16.394 33.11l6.362 57.945-58.283 1.067a34.276 34.276 0 0 0-30.753 20.475z"/><circle style="fill:#ffda44" cx="256" cy="256" r="169.566"/><path style="opacity:.11;fill:#663a00;enable-background:new" d="M477.517 260.351a34.277 34.277 0 0 1-2.356-36.87l28.217-51.009-48.863-21.484c.036 1.789.068 3.578.068 5.375 0 148.676-120.526 269.202-269.202 269.202-36.376 0-71.058-7.231-102.71-20.308l.856 46.769 57.945-6.362a34.28 34.28 0 0 1 33.11 16.394L204.647 512l47.001-34.483a34.277 34.277 0 0 1 36.87-2.356l51.009 28.217 23.462-53.363a34.283 34.283 0 0 1 30.752-20.477l58.283-1.067-6.362-57.945a34.28 34.28 0 0 1 16.394-33.11L512 307.353l-34.483-47.002z"/><path style="fill:#ffeb99" d="M142.57 263.837a7.837 7.837 0 0 1-7.837-7.837c0-66.867 54.401-121.267 121.267-121.267a7.837 7.837 0 0 1 0 15.674c-58.225 0-105.593 47.368-105.593 105.593a7.837 7.837 0 0 1-7.837 7.837z"/></svg>