<svg aria-hidden="true" style="position: absolute; width: 0; height: 0; overflow: hidden;" version="1.1" xmlns="http://www.w3.org/2000/svg" xmlns:xlink="http://www.w3.org/1999/xlink">
<defs>
<symbol id="icon-heard" viewBox="0 0 34 32">
<path fill="#ff6b08" style="fill: var(--color1, #ff6b08)" d="M17.231 31.705l-2.412-2.412c-8.96-7.926-14.818-13.268-14.818-19.815 0-5.342 4.135-9.477 9.477-9.477 2.929 0 5.858 1.378 7.754 3.618 1.895-2.24 4.825-3.618 7.754-3.618 5.342 0 9.477 4.135 9.477 9.477 0 6.548-5.858 11.889-14.818 19.815l-2.412 2.412z"></path>
</symbol>
<symbol id="icon-search-icon" viewBox="0 0 32 32">
<path fill="none" stroke="#fff" style="stroke: var(--color2, #fff)" stroke-linejoin="round" stroke-linecap="round" stroke-miterlimit="4" stroke-width="2.6667" d="M14.667 25.333c5.891 0 10.667-4.776 10.667-10.667s-4.776-10.667-10.667-10.667c-5.891 0-10.667 4.776-10.667 10.667s4.776 10.667 10.667 10.667z"></path>
<path fill="none" stroke="#fff" style="stroke: var(--color2, #fff)" stroke-linejoin="round" stroke-linecap="round" stroke-miterlimit="4" stroke-width="2.6667" d="M28 28.001l-5.8-5.8"></path>
</symbol>
<symbol id="icon-film" viewBox="0 0 32 32">
<path fill="none" stroke="#fff" style="stroke: var(--color2, #fff)" stroke-linejoin="round" stroke-linecap="round" stroke-miterlimit="4" stroke-width="2.6667" d="M26.427 2.667h-20.853c-1.605 0-2.907 1.301-2.907 2.907v20.853c0 1.605 1.301 2.907 2.907 2.907h20.853c1.605 0 2.907-1.301 2.907-2.907v-20.853c0-1.605-1.301-2.907-2.907-2.907z"></path>
<path fill="none" stroke="#fff" style="stroke: var(--color2, #fff)" stroke-linejoin="round" stroke-linecap="round" stroke-miterlimit="4" stroke-width="2.6667" d="M9.333 2.667v26.667"></path>
<path fill="none" stroke="#fff" style="stroke: var(--color2, #fff)" stroke-linejoin="round" stroke-linecap="round" stroke-miterlimit="4" stroke-width="2.6667" d="M22.667 2.667v26.667"></path>
<path fill="none" stroke="#fff" style="stroke: var(--color2, #fff)" stroke-linejoin="round" stroke-linecap="round" stroke-miterlimit="4" stroke-width="2.6667" d="M2.667 16h26.667"></path>
<path fill="none" stroke="#fff" style="stroke: var(--color2, #fff)" stroke-linejoin="round" stroke-linecap="round" stroke-miterlimit="4" stroke-width="2.6667" d="M2.667 9.333h6.667"></path>
<path fill="none" stroke="#fff" style="stroke: var(--color2, #fff)" stroke-linejoin="round" stroke-linecap="round" stroke-miterlimit="4" stroke-width="2.6667" d="M2.667 22.667h6.667"></path>
<path fill="none" stroke="#fff" style="stroke: var(--color2, #fff)" stroke-linejoin="round" stroke-linecap="round" stroke-miterlimit="4" stroke-width="2.6667" d="M22.667 22.667h6.667"></path>
<path fill="none" stroke="#fff" style="stroke: var(--color2, #fff)" stroke-linejoin="round" stroke-linecap="round" stroke-miterlimit="4" stroke-width="2.6667" d="M22.667 9.333h6.667"></path>
</symbol>
<symbol id="icon-close" viewBox="0 0 32 32">
<path d="M32 3.223l-3.223-3.223-12.777 12.777-12.777-12.777-3.223 3.223 12.777 12.777-12.777 12.777 3.223 3.223 12.777-12.777 12.777 12.777 3.223-3.223-12.777-12.777 12.777-12.777z"></path>
</symbol>
<symbol id="icon-heart" viewBox="0 0 32 32">
<path fill="#FF6B08" d="M23.6 2c-3.363 0-6.258 2.736-7.599 5.594-1.342-2.858-4.237-5.594-7.601-5.594-4.637 0-8.4 3.764-8.4 8.401 0 9.433 9.516 11.906 16.001 21.232 6.13-9.268 15.999-12.1 15.999-21.232 0-4.637-3.763-8.401-8.4-8.401z"></path>
</symbol>
<symbol id="moon" viewBox="0 0 32 32">
<path d="M17.701 32a15.97 15.97 0 0012.429-5.925c.442-.544-.04-1.339-.723-1.209-7.763 1.478-14.891-4.474-14.891-12.31 0-4.514 2.416-8.665 6.344-10.9.605-.345.453-1.262-.235-1.389-.879-.17-1.89-.267-2.923-.268-8.832 0-16 7.157-16 16 0 8.832 7.157 16 16 16z" />
</symbol>
<symbol id="sun" viewBox="0 0 32 32">
<path d="M16 10c-3.306 0-6 2.694-6 6s2.694 6 6 6 6-2.694 6-6-2.694-6-6-6zm15.4 5.031l-5.919-2.956L27.575 5.8c.281-.85-.525-1.656-1.369-1.369l-6.275 2.094L16.969.6c-.4-.8-1.537-.8-1.938 0l-2.956 5.919-6.281-2.094c-.85-.281-1.656.525-1.369 1.369l2.094 6.275L.6 15.032c-.8.4-.8 1.538 0 1.938l5.919 2.956-2.094 6.281c-.281.85.525 1.656 1.369 1.369l6.275-2.094 2.956 5.919c.4.8 1.538.8 1.938 0l2.956-5.919 6.275 2.094c.85.281 1.656-.525 1.369-1.369l-2.094-6.275 5.919-2.956c.813-.406.813-1.544.012-1.944zm-9.744 6.625c-3.119 3.119-8.194 3.119-11.313 0s-3.119-8.194 0-11.313c3.119-3.119 8.194-3.119 11.313 0s3.119 8.194 0 11.313z" />
</symbol>
<symbol id="icon-arrow-up" viewBox="0 0 32 32">
<path d="M26.132 24.713c1.34 1.34 3.522 1.34 4.862 0s1.34-3.522 0-4.862l-12.563-12.563c-1.34-1.34-3.522-1.34-4.862 0l-12.563 12.563c-1.34 1.34-1.34 3.522 0 4.862s3.522 1.34 4.862 0l10.132-10.132 10.132 10.132z"></path>
</symbol>
</defs>
</svg>
