<svg aria-hidden="true" style="position: absolute; width: 0; height: 0; overflow: hidden;"
   version="1.1" xmlns="http://www.w3.org/2000/svg" xmlns:xlink="http://www.w3.org/1999/xlink">
   <defs>
      <symbol id="icon-heard" viewBox="0 0 34 32">
         <path fill="#ff6b08" style="fill: var(--color1, #ff6b08)"
            d="M17.231 31.705l-2.412-2.412c-8.96-7.926-14.818-13.268-14.818-19.815 0-5.342 4.135-9.477 9.477-9.477 2.929 0 5.858 1.378 7.754 3.618 1.895-2.24 4.825-3.618 7.754-3.618 5.342 0 9.477 4.135 9.477 9.477 0 6.548-5.858 11.889-14.818 19.815l-2.412 2.412z"></path>
      </symbol>
      <symbol id="icon-play" viewBox="0 0 32 32">
         <path d="M6 4l20 12-20 12z"></path>
      </symbol>
      <symbol id="icon-search-icon" viewBox="0 0 32 32">
         <path fill="none" stroke="#fff" style="stroke: var(--color2, #fff)" stroke-linejoin="round"
            stroke-linecap="round" stroke-miterlimit="4" stroke-width="2.6667"
            d="M14.667 25.333c5.891 0 10.667-4.776 10.667-10.667s-4.776-10.667-10.667-10.667c-5.891 0-10.667 4.776-10.667 10.667s4.776 10.667 10.667 10.667z"></path>
         <path fill="none" stroke="#fff" style="stroke: var(--color2, #fff)" stroke-linejoin="round"
            stroke-linecap="round" stroke-miterlimit="4" stroke-width="2.6667"
            d="M28 28.001l-5.8-5.8"></path>
      </symbol>
      <symbol id="icon-film" viewBox="0 0 32 32">
         <path fill="none" stroke="#fff" style="stroke: var(--color2, #fff)" stroke-linejoin="round"
            stroke-linecap="round" stroke-miterlimit="4" stroke-width="2.6667"
            d="M26.427 2.667h-20.853c-1.605 0-2.907 1.301-2.907 2.907v20.853c0 1.605 1.301 2.907 2.907 2.907h20.853c1.605 0 2.907-1.301 2.907-2.907v-20.853c0-1.605-1.301-2.907-2.907-2.907z"></path>
         <path fill="none" stroke="#fff" style="stroke: var(--color2, #fff)" stroke-linejoin="round"
            stroke-linecap="round" stroke-miterlimit="4" stroke-width="2.6667"
            d="M9.333 2.667v26.667"></path>
         <path fill="none" stroke="#fff" style="stroke: var(--color2, #fff)" stroke-linejoin="round"
            stroke-linecap="round" stroke-miterlimit="4" stroke-width="2.6667"
            d="M22.667 2.667v26.667"></path>
         <path fill="none" stroke="#fff" style="stroke: var(--color2, #fff)" stroke-linejoin="round"
            stroke-linecap="round" stroke-miterlimit="4" stroke-width="2.6667" d="M2.667 16h26.667"></path>
         <path fill="none" stroke="#fff" style="stroke: var(--color2, #fff)" stroke-linejoin="round"
            stroke-linecap="round" stroke-miterlimit="4" stroke-width="2.6667"
            d="M2.667 9.333h6.667"></path>
         <path fill="none" stroke="#fff" style="stroke: var(--color2, #fff)" stroke-linejoin="round"
            stroke-linecap="round" stroke-miterlimit="4" stroke-width="2.6667"
            d="M2.667 22.667h6.667"></path>
         <path fill="none" stroke="#fff" style="stroke: var(--color2, #fff)" stroke-linejoin="round"
            stroke-linecap="round" stroke-miterlimit="4" stroke-width="2.6667"
            d="M22.667 22.667h6.667"></path>
         <path fill="none" stroke="#fff" style="stroke: var(--color2, #fff)" stroke-linejoin="round"
            stroke-linecap="round" stroke-miterlimit="4" stroke-width="2.6667"
            d="M22.667 9.333h6.667"></path>
      </symbol>
      <symbol id="icon-close" viewBox="0 0 32 32">
         <path
            d="M32 3.223l-3.223-3.223-12.777 12.777-12.777-12.777-3.223 3.223 12.777 12.777-12.777 12.777 3.223 3.223 12.777-12.777 12.777 12.777 3.223-3.223-12.777-12.777 12.777-12.777z"></path>
      </symbol>
      <symbol id="icon-heart" viewBox="0 0 32 32">
         <path fill="#FF6B08"
            d="M23.6 2c-3.363 0-6.258 2.736-7.599 5.594-1.342-2.858-4.237-5.594-7.601-5.594-4.637 0-8.4 3.764-8.4 8.401 0 9.433 9.516 11.906 16.001 21.232 6.13-9.268 15.999-12.1 15.999-21.232 0-4.637-3.763-8.401-8.4-8.401z"></path>
      </symbol>
      <symbol id="moon" viewBox="0 0 32 32">
         <path
            d="M17.701 32a15.97 15.97 0 0012.429-5.925c.442-.544-.04-1.339-.723-1.209-7.763 1.478-14.891-4.474-14.891-12.31 0-4.514 2.416-8.665 6.344-10.9.605-.345.453-1.262-.235-1.389-.879-.17-1.89-.267-2.923-.268-8.832 0-16 7.157-16 16 0 8.832 7.157 16 16 16z" />
      </symbol>
      <symbol id="sun" viewBox="0 0 32 32">
         <path
            d="M16 10c-3.306 0-6 2.694-6 6s2.694 6 6 6 6-2.694 6-6-2.694-6-6-6zm15.4 5.031l-5.919-2.956L27.575 5.8c.281-.85-.525-1.656-1.369-1.369l-6.275 2.094L16.969.6c-.4-.8-1.537-.8-1.938 0l-2.956 5.919-6.281-2.094c-.85-.281-1.656.525-1.369 1.369l2.094 6.275L.6 15.032c-.8.4-.8 1.538 0 1.938l5.919 2.956-2.094 6.281c-.281.85.525 1.656 1.369 1.369l6.275-2.094 2.956 5.919c.4.8 1.538.8 1.938 0l2.956-5.919 6.275 2.094c.85.281 1.656-.525 1.369-1.369l-2.094-6.275 5.919-2.956c.813-.406.813-1.544.012-1.944zm-9.744 6.625c-3.119 3.119-8.194 3.119-11.313 0s-3.119-8.194 0-11.313c3.119-3.119 8.194-3.119 11.313 0s3.119 8.194 0 11.313z" />
      </symbol>
      <symbol id="icon-arrow-up" viewBox="0 0 32 32">
         <path
            d="M26.132 24.713c1.34 1.34 3.522 1.34 4.862 0s1.34-3.522 0-4.862l-12.563-12.563c-1.34-1.34-3.522-1.34-4.862 0l-12.563 12.563c-1.34 1.34-1.34 3.522 0 4.862s3.522 1.34 4.862 0l10.132-10.132 10.132 10.132z"></path>
      </symbol>
      <symbol id="icon-chevron-up" viewBox="0 0 24 24">
         <path
            d="M18.707 14.293l-6-6c-0.391-0.391-1.024-0.391-1.414 0l-6 6c-0.391 0.391-0.391 1.024 0 1.414s1.024 0.391 1.414 0l5.293-5.293 5.293 5.293c0.391 0.391 1.024 0.391 1.414 0s0.391-1.024 0-1.414z"></path>
      </symbol>
      <symbol id="icon-log-in" viewBox="0 0 24 24">
         <path
            d="M15 4h4c0.276 0 0.525 0.111 0.707 0.293s0.293 0.431 0.293 0.707v14c0 0.276-0.111 0.525-0.293 0.707s-0.431 0.293-0.707 0.293h-4c-0.552 0-1 0.448-1 1s0.448 1 1 1h4c0.828 0 1.58-0.337 2.121-0.879s0.879-1.293 0.879-2.121v-14c0-0.828-0.337-1.58-0.879-2.121s-1.293-0.879-2.121-0.879h-4c-0.552 0-1 0.448-1 1s0.448 1 1 1zM12.586 11h-9.586c-0.552 0-1 0.448-1 1s0.448 1 1 1h9.586l-3.293 3.293c-0.391 0.391-0.391 1.024 0 1.414s1.024 0.391 1.414 0l5-5c0.096-0.096 0.168-0.206 0.217-0.324s0.076-0.247 0.076-0.383c0-0.13-0.025-0.261-0.076-0.383-0.049-0.118-0.121-0.228-0.217-0.324l-5-5c-0.391-0.391-1.024-0.391-1.414 0s-0.391 1.024 0 1.414z"></path>
      </symbol>
      <symbol id="icon-log-out" viewBox="0 0 24 24">
         <path
            d="M9 20h-4c-0.276 0-0.525-0.111-0.707-0.293s-0.293-0.431-0.293-0.707v-14c0-0.276 0.111-0.525 0.293-0.707s0.431-0.293 0.707-0.293h4c0.552 0 1-0.448 1-1s-0.448-1-1-1h-4c-0.828 0-1.58 0.337-2.121 0.879s-0.879 1.293-0.879 2.121v14c0 0.828 0.337 1.58 0.879 2.121s1.293 0.879 2.121 0.879h4c0.552 0 1-0.448 1-1s-0.448-1-1-1zM18.586 11h-9.586c-0.552 0-1 0.448-1 1s0.448 1 1 1h9.586l-3.293 3.293c-0.391 0.391-0.391 1.024 0 1.414s1.024 0.391 1.414 0l5-5c0.092-0.092 0.166-0.202 0.217-0.324 0.15-0.362 0.078-0.795-0.217-1.090l-5-5c-0.391-0.391-1.024-0.391-1.414 0s-0.391 1.024 0 1.414z"></path>
      </symbol>
      <symbol id="icon-x-square" viewBox="0 0 24 24">
         <path
            d="M5 2c-0.828 0-1.58 0.337-2.121 0.879s-0.879 1.293-0.879 2.121v14c0 0.828 0.337 1.58 0.879 2.121s1.293 0.879 2.121 0.879h14c0.828 0 1.58-0.337 2.121-0.879s0.879-1.293 0.879-2.121v-14c0-0.828-0.337-1.58-0.879-2.121s-1.293-0.879-2.121-0.879zM5 4h14c0.276 0 0.525 0.111 0.707 0.293s0.293 0.431 0.293 0.707v14c0 0.276-0.111 0.525-0.293 0.707s-0.431 0.293-0.707 0.293h-14c-0.276 0-0.525-0.111-0.707-0.293s-0.293-0.431-0.293-0.707v-14c0-0.276 0.111-0.525 0.293-0.707s0.431-0.293 0.707-0.293zM14.293 8.293l-2.293 2.293-2.293-2.293c-0.391-0.391-1.024-0.391-1.414 0s-0.391 1.024 0 1.414l2.293 2.293-2.293 2.293c-0.391 0.391-0.391 1.024 0 1.414s1.024 0.391 1.414 0l2.293-2.293 2.293 2.293c0.391 0.391 1.024 0.391 1.414 0s0.391-1.024 0-1.414l-2.293-2.293 2.293-2.293c0.391-0.391 0.391-1.024 0-1.414s-1.024-0.391-1.414 0z"></path>
      </symbol>
      <symbol id="icon-close" viewBox="0 0 20 20">
         <path
            d="M10 8.586l-7.071-7.071-1.414 1.414 7.071 7.071-7.071 7.071 1.414 1.414 7.071-7.071 7.071 7.071 1.414-1.414-7.071-7.071 7.071-7.071-1.414-1.414-7.071 7.071z"></path>
      </symbol>
      <symbol id="icon-user" viewBox="0 0 24 24">
         <path
            d="M21 21v-2c0-1.38-0.561-2.632-1.464-3.536s-2.156-1.464-3.536-1.464h-8c-1.38 0-2.632 0.561-3.536 1.464s-1.464 2.156-1.464 3.536v2c0 0.552 0.448 1 1 1s1-0.448 1-1v-2c0-0.829 0.335-1.577 0.879-2.121s1.292-0.879 2.121-0.879h8c0.829 0 1.577 0.335 2.121 0.879s0.879 1.292 0.879 2.121v2c0 0.552 0.448 1 1 1s1-0.448 1-1zM17 7c0-1.38-0.561-2.632-1.464-3.536s-2.156-1.464-3.536-1.464-2.632 0.561-3.536 1.464-1.464 2.156-1.464 3.536 0.561 2.632 1.464 3.536 2.156 1.464 3.536 1.464 2.632-0.561 3.536-1.464 1.464-2.156 1.464-3.536zM15 7c0 0.829-0.335 1.577-0.879 2.121s-1.292 0.879-2.121 0.879-1.577-0.335-2.121-0.879-0.879-1.292-0.879-2.121 0.335-1.577 0.879-2.121 1.292-0.879 2.121-0.879 1.577 0.335 2.121 0.879 0.879 1.292 0.879 2.121z"></path>
      </symbol>
      <symbol id="icon-gmail" viewBox="0 0 32 32">
         <path fill="#d14836" style="fill: var(--color1, #d14836)"
            d="M32 6v20c0 1.133-0.867 2-2 2h-2v-18.151l-12 8.617-12-8.617v18.151h-2c-1.135 0-2-0.867-2-2v-20c0-0.567 0.216-1.067 0.575-1.424 0.359-0.363 0.86-0.576 1.425-0.576h0.667l13.333 9.667 13.333-9.667h0.667c0.567 0 1.067 0.216 1.425 0.576 0.36 0.357 0.575 0.857 0.575 1.424z"></path>
      </symbol>
      <symbol id="icon-key" viewBox="0 0 20 20">
         <path
            d="M12.26 11.74l-2.26 2.26h-2v2h-2v2l-2 2h-4v-4l8.26-8.26c-0.164-0.521-0.258-1.12-0.258-1.742 0-3.314 2.686-6 6-6s6 2.686 6 6c0 3.314-2.686 6-6 6-0.621 0-1.221-0.094-1.784-0.27l0.043 0.011zM17.12 7.12c0.542-0.543 0.877-1.292 0.877-2.12 0-1.656-1.342-2.998-2.997-3h-0c-0.828 0.001-1.578 0.337-2.12 0.88l-0 0 4.24 4.24z"></path>
      </symbol>
   </defs>
</svg>