<?xml version="1.0" encoding="iso-8859-1"?>
<!-- Uploaded to: SVG Repo, www.svgrepo.com, Generator: SVG Repo Mixer Tools -->
<svg height="40px" width="40px" version="1.1" id="Layer_1" xmlns="http://www.w3.org/2000/svg" xmlns:xlink="http://www.w3.org/1999/xlink" 
	 viewBox="0 0 512 512" xml:space="preserve">
<path style="fill:#DDB200;" d="M362.99,450.016l-23.462,53.363l-51.009-28.217c-11.699-6.471-26.091-5.552-36.87,2.356L204.647,512
	l-30.066-49.942c-6.895-11.453-19.821-17.853-33.11-16.394l-57.945,6.362l-1.067-58.283c-0.245-13.366-8.238-25.372-20.477-30.752
	L8.62,339.528l28.217-51.009c6.471-11.699,5.552-26.091-2.356-36.87L0,204.647l49.942-30.066
	c11.453-6.895,17.853-19.821,16.394-33.11l-6.362-57.945l58.283-1.067c13.366-0.245,25.372-8.238,30.752-20.477L172.472,8.62
	l51.009,28.217c11.699,6.471,26.091,5.552,36.87-2.356L307.353,0l30.066,49.942c6.895,11.453,19.821,17.853,33.11,16.394
	l57.945-6.362l1.067,58.283c0.245,13.366,8.238,25.372,20.477,30.752l53.363,23.462l-28.217,51.009
	c-6.471,11.699-5.552,26.091,2.356,36.87L512,307.353l-49.942,30.066c-11.453,6.895-17.853,19.821-16.394,33.11l6.362,57.945
	l-58.283,1.067C380.376,429.784,368.371,437.778,362.99,450.016z"/>
<circle style="fill:#FFDA44;" cx="256" cy="256" r="169.566"/>
<path style="opacity:0.11;fill:#663A00;enable-background:new    ;" d="M477.517,260.351c-7.908-10.779-8.828-25.173-2.356-36.87
	l28.217-51.009l-48.863-21.484c0.036,1.789,0.068,3.578,0.068,5.375c0,148.676-120.526,269.202-269.202,269.202
	c-36.376,0-71.058-7.231-102.71-20.308l0.856,46.769l57.945-6.362c13.289-1.459,26.214,4.94,33.11,16.394L204.647,512l47.001-34.483
	c10.779-7.908,25.173-8.828,36.87-2.356l51.009,28.217l23.462-53.363c5.381-12.238,17.386-20.231,30.752-20.477l58.283-1.067
	l-6.362-57.945c-1.459-13.289,4.94-26.214,16.394-33.11L512,307.353L477.517,260.351z"/>
<path style="fill:#FFEB99;" d="M142.57,263.837c-4.328,0-7.837-3.509-7.837-7.837c0-66.867,54.401-121.267,121.267-121.267
	c4.328,0,7.837,3.509,7.837,7.837c0,4.328-3.509,7.837-7.837,7.837c-58.225,0-105.593,47.368-105.593,105.593
	C150.407,260.328,146.898,263.837,142.57,263.837z"/>
</svg>